<svg xmlns="http://www.w3.org/2000/svg" viewBox="0 0 618.59 166.2"><title>netflix logo vector</title><path d="M680.43,579.7q13,1,26,2.15V428.92h-26ZM261.39,523l-33.93-94H202.71V595.1q13-1.85,26-3.55V501.18l30.17,86.66q14.23-1.65,28.52-3.12V428.92h-26Zm51.1,59.34q36-3.27,72.36-5.38V551.25q-23.22,1.34-46.31,3.16V515.56c10.1-.1,23.4-.41,35.18-.26V489.63c-9.41,0-24.54.13-35.18.27V454.81h46.31v-25.9H312.49Zm89.06-127.48h27.26v120q13-.49,26-.82V454.81h27.26v-25.9H401.54Zm97.27,118.5h26V514h35.31V488.38H524.87V454.81h46.67v-25.9H498.82ZM821.29,428.92H792.68l-18.86,43.72-16.95-43.72H728.69L759,507l-33.06,76.64q13.72,1.34,27.38,2.85L772.52,542l19,49.12q14.88,1.91,29.69,4l0,0-33.93-87.52Zm-207,0h-26V574.58q35.51,1.22,70.73,3.57V552.49Q636.68,551,614.28,550Z" transform="translate(-202.71 -428.9)" style="fill:#e50914"/></svg>